<svg width="16" height="16" viewBox="0 0 16 16" fill="none" xmlns="http://www.w3.org/2000/svg">
<g clip-path="url(#clip0_239_3789)">
<path d="M10.25 3.87492C10.2499 3.43499 10.4045 3.00905 10.6868 2.67162C10.9691 2.33419 11.361 2.10676 11.794 2.02912C12.227 1.95147 12.6736 2.02856 13.0555 2.24689C13.4374 2.46522 13.7304 2.8109 13.8832 3.22343C14.036 3.63597 14.0389 4.0891 13.8914 4.50354C13.7438 4.91799 13.4552 5.26736 13.0761 5.49052C12.697 5.71369 12.2515 5.79644 11.8175 5.7243C11.3835 5.65217 10.9887 5.42973 10.7022 5.09592L5.66371 7.43592C5.77954 7.80299 5.77954 8.19684 5.66371 8.56391L10.7022 10.9039C11.0051 10.5517 11.428 10.3244 11.8889 10.2662C12.3497 10.2079 12.8159 10.3228 13.1968 10.5887C13.5778 10.8545 13.8466 11.2523 13.951 11.705C14.0554 12.1577 13.988 12.633 13.7619 13.0388C13.5358 13.4447 13.1671 13.7521 12.7273 13.9016C12.2874 14.0511 11.8077 14.032 11.3812 13.848C10.9546 13.6639 10.6116 13.3281 10.4185 12.9056C10.2254 12.483 10.1961 12.0038 10.3362 11.5609L5.29771 9.22092C5.04828 9.51159 4.71582 9.71891 4.34504 9.81498C3.97426 9.91105 3.58295 9.89126 3.22376 9.75827C2.86456 9.62529 2.55471 9.38549 2.33589 9.07113C2.11706 8.75677 1.99976 8.38294 1.99976 7.99991C1.99976 7.61689 2.11706 7.24306 2.33589 6.9287C2.55471 6.61434 2.86456 6.37454 3.22376 6.24156C3.58295 6.10857 3.97426 6.08878 4.34504 6.18485C4.71582 6.28092 5.04828 6.48824 5.29771 6.77892L10.3362 4.43892C10.2789 4.25642 10.2498 4.06621 10.25 3.87492Z" fill="black"/>
</g>
<defs>
<clipPath id="clip0_239_3789">
<rect width="12" height="12" fill="white" transform="translate(2 2)"/>
</clipPath>
</defs>
</svg>
