<svg width="20" height="20" viewBox="0 0 20 20" fill="none" xmlns="http://www.w3.org/2000/svg">
<g clip-path="url(#clip0_210_751)">
<path d="M12.25 5.87493C12.2499 5.435 12.4045 5.00907 12.6868 4.67164C12.9691 4.33421 13.361 4.10678 13.794 4.02913C14.227 3.95149 14.6736 4.02858 15.0555 4.24691C15.4374 4.46524 15.7304 4.81091 15.8832 5.22345C16.036 5.63599 16.0389 6.08912 15.8914 6.50356C15.7438 6.918 15.4552 7.26737 15.0761 7.49054C14.697 7.7137 14.2515 7.79646 13.8175 7.72432C13.3835 7.65218 12.9887 7.42975 12.7022 7.09593L7.66371 9.43593C7.77954 9.80301 7.77954 10.1969 7.66371 10.5639L12.7022 12.9039C13.0051 12.5517 13.428 12.3244 13.8889 12.2662C14.3497 12.2079 14.8159 12.3229 15.1968 12.5887C15.5778 12.8545 15.8466 13.2523 15.951 13.705C16.0554 14.1577 15.988 14.633 15.7619 15.0389C15.5358 15.4447 15.1671 15.7522 14.7273 15.9016C14.2874 16.0511 13.8077 16.032 13.3812 15.848C12.9546 15.664 12.6116 15.3281 12.4185 14.9056C12.2254 14.483 12.1961 14.0039 12.3362 13.5609L7.29771 11.2209C7.04828 11.5116 6.71582 11.7189 6.34504 11.815C5.97426 11.9111 5.58295 11.8913 5.22376 11.7583C4.86456 11.6253 4.55471 11.3855 4.33589 11.0711C4.11706 10.7568 3.99976 10.383 3.99976 9.99993C3.99976 9.61691 4.11706 9.24307 4.33589 8.92872C4.55471 8.61436 4.86456 8.37456 5.22376 8.24157C5.58295 8.10859 5.97426 8.0888 6.34504 8.18487C6.71582 8.28093 7.04828 8.48825 7.29771 8.77893L12.3362 6.43893C12.2789 6.25643 12.2498 6.06623 12.25 5.87493Z" fill="black"/>
</g>
<defs>
<clipPath id="clip0_210_751">
<rect width="12" height="12" fill="white" transform="translate(4 4)"/>
</clipPath>
</defs>
</svg>
