<svg width="15" height="16" viewBox="0 0 15 16" fill="none" xmlns="http://www.w3.org/2000/svg">
<g clip-path="url(#clip0_210_761)">
<path d="M0.9375 9.69067C1.05353 9.69067 1.16481 9.73755 1.24686 9.82099C1.32891 9.90442 1.375 10.0176 1.375 10.1356V12.3602C1.375 12.5962 1.46719 12.8225 1.63128 12.9894C1.79538 13.1562 2.01794 13.25 2.25 13.25H12.75C12.9821 13.25 13.2046 13.1562 13.3687 12.9894C13.5328 12.8225 13.625 12.5962 13.625 12.3602V10.1356C13.625 10.0176 13.6711 9.90442 13.7531 9.82099C13.8352 9.73755 13.9465 9.69067 14.0625 9.69067C14.1785 9.69067 14.2898 9.73755 14.3719 9.82099C14.4539 9.90442 14.5 10.0176 14.5 10.1356V12.3602C14.5 12.8322 14.3156 13.2848 13.9874 13.6186C13.6592 13.9523 13.2141 14.1398 12.75 14.1398H2.25C1.78587 14.1398 1.34075 13.9523 1.01256 13.6186C0.684374 13.2848 0.5 12.8322 0.5 12.3602V10.1356C0.5 10.0176 0.546094 9.90442 0.628141 9.82099C0.710188 9.73755 0.821468 9.69067 0.9375 9.69067Z" fill="black"/>
<path d="M7.19031 11.4294C7.23095 11.4708 7.27923 11.5037 7.33239 11.5261C7.38554 11.5486 7.44252 11.5601 7.50006 11.5601C7.55761 11.5601 7.61459 11.5486 7.66774 11.5261C7.7209 11.5037 7.76917 11.4708 7.80981 11.4294L10.4348 8.75991C10.517 8.67636 10.5631 8.56306 10.5631 8.44491C10.5631 8.32676 10.517 8.21345 10.4348 8.12991C10.3527 8.04636 10.2412 7.99943 10.1251 7.99943C10.0089 7.99943 9.89747 8.04636 9.81531 8.12991L7.93756 10.0404V2.21609C7.93756 2.0981 7.89147 1.98493 7.80942 1.90149C7.72738 1.81805 7.6161 1.77118 7.50006 1.77118C7.38403 1.77118 7.27275 1.81805 7.19071 1.90149C7.10866 1.98493 7.06256 2.0981 7.06256 2.21609V10.0404L5.18481 8.12991C5.10266 8.04636 4.99124 7.99943 4.87506 7.99943C4.75889 7.99943 4.64747 8.04636 4.56531 8.12991C4.48316 8.21345 4.43701 8.32676 4.43701 8.44491C4.43701 8.56306 4.48316 8.67636 4.56531 8.75991L7.19031 11.4294Z" fill="black"/>
</g>
<defs>
<clipPath id="clip0_210_761">
<rect width="14" height="14.2373" fill="white" transform="translate(0.5 0.881348)"/>
</clipPath>
</defs>
</svg>
